<?xml version="1.0" encoding="UTF-8"?>
<svg xmlns="http://www.w3.org/2000/svg" xmlns:xlink="http://www.w3.org/1999/xlink" width="32px" height="32px" viewBox="0 0 32 30" version="1.1">
<g id="surface1">
<path style=" stroke:none;fill-rule:nonzero;fill:rgb(13.72549%,12.156863%,12.54902%);fill-opacity:1;" d="M 12.640625 18.039062 L 12.695312 18.007812 Z M 12.640625 18.039062 "/>
<path style=" stroke:none;fill-rule:nonzero;fill:rgb(100%,100%,100%);fill-opacity:1;" d="M 16 12.03125 L 6.007812 12.03125 L 11.007812 21.023438 L 16 30.015625 L 20.992188 21.023438 L 25.992188 12.03125 Z M 18.5 19.523438 L 16 24.015625 L 13.5 19.523438 L 11.007812 15.023438 L 20.992188 15.023438 Z M 18.5 19.523438 "/>
<path style=" stroke:none;fill-rule:nonzero;fill:rgb(100%,100%,100%);fill-opacity:1;" d="M 18.5 4.53125 L 16 0.0390625 L 13.5 4.53125 L 11.007812 9.03125 L 14.335938 9.03125 L 14.75 8.28125 L 16 6.03125 L 17.25 8.28125 L 17.664062 9.03125 L 20.992188 9.03125 Z M 18.5 4.53125 "/>
<path style=" stroke:none;fill-rule:nonzero;fill:rgb(100%,100%,100%);fill-opacity:1;" d="M 25.992188 27.015625 L 30.984375 27.015625 L 28.492188 22.523438 L 25.992188 18.023438 L 24.328125 21.023438 L 24.742188 21.773438 L 25.992188 24.023438 L 22.664062 24.023438 L 21 27.015625 Z M 25.992188 27.015625 "/>
<path style=" stroke:none;fill-rule:nonzero;fill:rgb(100%,100%,100%);fill-opacity:1;" d="M 3.507812 22.523438 L 1.015625 27.015625 L 11 27.015625 L 9.335938 24.023438 L 6.007812 24.023438 L 7.257812 21.773438 L 7.671875 21.023438 L 6.007812 18.023438 Z M 3.507812 22.523438 "/>
</g>
</svg>
