<?xml version="1.0" encoding="UTF-8"?>
<svg xmlns="http://www.w3.org/2000/svg" xmlns:xlink="http://www.w3.org/1999/xlink" width="48px" height="48px" viewBox="0 0 48 48" version="1.1">
<g id="surface1">
<path style=" stroke:none;fill-rule:nonzero;fill:rgb(13.72549%,12.156863%,12.54902%);fill-opacity:1;" d="M 18.960938 28.558594 L 19.042969 28.511719 Z M 18.960938 28.558594 "/>
<path style=" stroke:none;fill-rule:nonzero;fill:rgb(100%,100%,100%);fill-opacity:1;" d="M 24 19.546875 L 9.011719 19.546875 L 16.511719 33.035156 L 24 46.523438 L 31.488281 33.035156 L 38.988281 19.546875 Z M 27.75 30.785156 L 24 37.523438 L 20.25 30.785156 L 16.511719 24.035156 L 31.488281 24.035156 Z M 27.75 30.785156 "/>
<path style=" stroke:none;fill-rule:nonzero;fill:rgb(100%,100%,100%);fill-opacity:1;" d="M 27.75 8.296875 L 24 1.558594 L 20.25 8.296875 L 16.511719 15.046875 L 21.503906 15.046875 L 22.125 13.921875 L 24 10.546875 L 25.875 13.921875 L 26.496094 15.046875 L 31.488281 15.046875 Z M 27.75 8.296875 "/>
<path style=" stroke:none;fill-rule:nonzero;fill:rgb(100%,100%,100%);fill-opacity:1;" d="M 38.988281 42.023438 L 46.476562 42.023438 L 42.738281 35.285156 L 38.988281 28.535156 L 36.492188 33.035156 L 37.113281 34.160156 L 38.988281 37.535156 L 33.996094 37.535156 L 31.5 42.023438 Z M 38.988281 42.023438 "/>
<path style=" stroke:none;fill-rule:nonzero;fill:rgb(100%,100%,100%);fill-opacity:1;" d="M 5.261719 35.285156 L 1.523438 42.023438 L 16.5 42.023438 L 14.003906 37.535156 L 9.011719 37.535156 L 10.886719 34.160156 L 11.507812 33.035156 L 9.011719 28.535156 Z M 5.261719 35.285156 "/>
</g>
</svg>
