<?xml version="1.0" encoding="UTF-8"?>
<svg xmlns="http://www.w3.org/2000/svg" xmlns:xlink="http://www.w3.org/1999/xlink" viewBox="0 0 64 64" version="1.1">
<g id="surface1">
<path style=" stroke:none;fill-rule:nonzero;" d="M 32 26.0625 L 12.015625 26.0625 L 22.015625 44.046875 L 32 62.03125 L 41.984375 44.046875 L 51.984375 26.0625 Z M 37 41.046875 L 32 50.03125 L 27 41.046875 L 22.015625 32.046875 L 41.984375 32.046875 Z M 37 41.046875 "/>
<path style=" stroke:none;fill-rule:nonzero;" d="M 37 11.0625 L 32 2.078125 L 27 11.0625 L 22.015625 20.0625 L 28.671875 20.0625 L 29.5 18.5625 L 32 14.0625 L 34.5 18.5625 L 35.328125 20.0625 L 41.984375 20.0625 Z M 37 11.0625 "/>
<path style=" stroke:none;fill-rule:nonzero;" d="M 51.984375 56.03125 L 61.96875 56.03125 L 56.984375 47.046875 L 51.984375 38.046875 L 48.65625 44.046875 L 49.484375 45.546875 L 51.984375 50.046875 L 45.328125 50.046875 L 42 56.03125 Z M 51.984375 56.03125 "/>
<path style=" stroke:none;fill-rule:nonzero;" d="M 7.015625 47.046875 L 2.03125 56.03125 L 22 56.03125 L 18.671875 50.046875 L 12.015625 50.046875 L 14.515625 45.546875 L 15.34375 44.046875 L 12.015625 38.046875 Z M 7.015625 47.046875 "/>
</g>
</svg>
